<svg id="Layer_1" data-name="Layer 1" xmlns="http://www.w3.org/2000/svg" viewBox="0 0 682.92 133.08"><defs><style>.cls-1{fill:#04a785;}.cls-2{fill:#010101;}.cls-3{fill:#333;}</style></defs><title>graviologo</title><path class="cls-1" d="M174.44,303.8H81.13v15.52h81.75a63.63,63.63,0,0,0,52.23,40.75V344.81A48.51,48.51,0,0,1,174.44,303.8Z" transform="translate(-81.13 -231.6)"/><path class="cls-1" d="M175.57,288.28a48.36,48.36,0,0,1,81.64-27.83l10.71-10.71a63.52,63.52,0,0,0-103.9,23H81.13v15.51Z" transform="translate(-81.13 -231.6)"/><rect class="cls-1" x="202.53" y="41.17" width="80.94" height="15.52"/><path class="cls-1" d="M215.11,303.8v15.52h52a48.53,48.53,0,0,1-36.45,25.61v15.23a63.56,63.56,0,0,0,53-40.84h81V303.8Z" transform="translate(-81.13 -231.6)"/><path class="cls-2" d="M481.18,325a28.25,28.25,0,0,1-4.16,3.9,31.68,31.68,0,0,1-6.62,3.86,48.42,48.42,0,0,1-9.4,3,58,58,0,0,1-12.45,1.2,40.29,40.29,0,0,1-15.09-2.72,31.61,31.61,0,0,1-11.69-8,36.46,36.46,0,0,1-7.53-12.95,53.33,53.33,0,0,1-2.67-17.58v-5A55.92,55.92,0,0,1,414.12,273a36.64,36.64,0,0,1,7.21-13,30.34,30.34,0,0,1,11.28-8,38,38,0,0,1,14.71-2.75,44.35,44.35,0,0,1,14.38,2.08,28.26,28.26,0,0,1,10.14,5.83,26.53,26.53,0,0,1,6.35,9,39.22,39.22,0,0,1,3,11.43H464.07a25.19,25.19,0,0,0-1.64-5.83,13.33,13.33,0,0,0-3-4.45,13.09,13.09,0,0,0-4.78-2.85,20.66,20.66,0,0,0-6.77-1q-9,0-13.71,6.82t-4.69,20.25v5.15q0,13.43,5.1,20.28t14.94,6.85a31.69,31.69,0,0,0,5.51-.41,23.07,23.07,0,0,0,4-1,13.45,13.45,0,0,0,2.79-1.35,11.21,11.21,0,0,0,1.81-1.44v-14.7h-16V290.92h33.57Z" transform="translate(-81.13 -231.6)"/><path class="cls-2" d="M532.81,288.22c-.86-.11-1.86-.22-3-.32s-2.17-.15-3.07-.15a16.91,16.91,0,0,0-8.06,1.67,10.34,10.34,0,0,0-4.54,4.84v41.48H497.19v-63.4h16l.47,7.56a19,19,0,0,1,5.92-6.41,14.52,14.52,0,0,1,8.2-2.32,18.06,18.06,0,0,1,2.85.24,17.81,17.81,0,0,1,2.43.52Z" transform="translate(-81.13 -231.6)"/><path class="cls-2" d="M578.82,335.74a18.79,18.79,0,0,1-1.7-5.68,22.21,22.21,0,0,1-6.48,4.86,20.71,20.71,0,0,1-9.52,2,25.17,25.17,0,0,1-8.52-1.4,21.11,21.11,0,0,1-6.86-3.93,18.07,18.07,0,0,1-4.54-6,17.83,17.83,0,0,1-1.64-7.65,20.19,20.19,0,0,1,1.85-8.85,17.27,17.27,0,0,1,5.53-6.56,26.63,26.63,0,0,1,9.17-4.1A51.44,51.44,0,0,1,568.86,297h7.56v-3.63a10.47,10.47,0,0,0-2.26-7c-1.5-1.76-3.88-2.64-7.12-2.64a10.08,10.08,0,0,0-6.71,2.05,7,7,0,0,0-2.43,5.63H541a16.77,16.77,0,0,1,1.9-7.8,19.61,19.61,0,0,1,5.42-6.44,27.26,27.26,0,0,1,8.5-4.37,36.17,36.17,0,0,1,11.13-1.61,35.2,35.2,0,0,1,10.19,1.41,23,23,0,0,1,8.09,4.19,19.08,19.08,0,0,1,5.3,7,23.38,23.38,0,0,1,1.91,9.76v26.83c0,1.8.06,3.41.17,4.84s.28,2.71.47,3.86a20.84,20.84,0,0,0,.76,3.11,19.16,19.16,0,0,0,1.12,2.61v1Zm-14-11.78a14.65,14.65,0,0,0,4-.52,14.37,14.37,0,0,0,3.31-1.38,12,12,0,0,0,2.55-2,11.12,11.12,0,0,0,1.73-2.29v-10.9h-7a20.39,20.39,0,0,0-5.8.74,11.21,11.21,0,0,0-4,2.05,8.18,8.18,0,0,0-2.35,3.1,10,10,0,0,0-.76,3.9,6.74,6.74,0,0,0,2.23,5.21A8.63,8.63,0,0,0,564.81,324Z" transform="translate(-81.13 -231.6)"/><path class="cls-2" d="M632.15,315.06l11.77-42.72h17.7l-21.39,63.4H624.06l-21.39-63.4h17.7Z" transform="translate(-81.13 -231.6)"/><path class="cls-2" d="M671.82,255.94a8.34,8.34,0,0,1,2.55-6.27,9.59,9.59,0,0,1,7-2.46,11.31,11.31,0,0,1,3.92.64,8.58,8.58,0,0,1,3,1.82,8.14,8.14,0,0,1,1.9,2.78,9.42,9.42,0,0,1,0,7,8.18,8.18,0,0,1-1.9,2.79,8.56,8.56,0,0,1-3,1.81,12.18,12.18,0,0,1-7.85,0,8.56,8.56,0,0,1-3-1.81,8.18,8.18,0,0,1-1.9-2.79A9,9,0,0,1,671.82,255.94Zm18,79.8h-17v-63.4h17Z" transform="translate(-81.13 -231.6)"/><path class="cls-2" d="M704,303.46a40.17,40.17,0,0,1,2-12.83,29.36,29.36,0,0,1,5.8-10.23,26.76,26.76,0,0,1,9.41-6.77,31.37,31.37,0,0,1,12.74-2.46,31.71,31.71,0,0,1,12.83,2.46,27,27,0,0,1,9.47,6.77,29.27,29.27,0,0,1,5.83,10.23,40.17,40.17,0,0,1,2,12.83v1.23a40.13,40.13,0,0,1-2,12.86,29.36,29.36,0,0,1-5.83,10.19,26.68,26.68,0,0,1-9.41,6.74,34.85,34.85,0,0,1-25.57,0,26.61,26.61,0,0,1-9.44-6.74A29.2,29.2,0,0,1,706,317.55a40.13,40.13,0,0,1-2-12.86Zm16.93,1.23a35.62,35.62,0,0,0,.71,7.26,18,18,0,0,0,2.25,5.89,11.8,11.8,0,0,0,4.05,4,12,12,0,0,0,6.12,1.46,11.76,11.76,0,0,0,6-1.46,12,12,0,0,0,4.07-4,17.58,17.58,0,0,0,2.28-5.89,35.62,35.62,0,0,0,.71-7.26v-1.23a34.66,34.66,0,0,0-.71-7.12,18.27,18.27,0,0,0-2.28-5.92,12,12,0,0,0-4.1-4,11.74,11.74,0,0,0-6.1-1.5,11.42,11.42,0,0,0-6,1.5,11.77,11.77,0,0,0-4.05,4,18.71,18.71,0,0,0-2.25,5.92,34.66,34.66,0,0,0-.71,7.12Z" transform="translate(-81.13 -231.6)"/><path class="cls-3" d="M504.73,355.22h-5.25v3.94h6.14v1.78h-8.37v-12.8h8.31v1.79h-6.08v3.53h5.25Z" transform="translate(-81.13 -231.6)"/><path class="cls-3" d="M506.66,356.11a5.67,5.67,0,0,1,1-3.53,3.26,3.26,0,0,1,2.73-1.33,3.1,3.1,0,0,1,2.44,1.05v-4.86H515v13.5h-1.93l-.11-1a3.16,3.16,0,0,1-2.56,1.16,3.26,3.26,0,0,1-2.7-1.34A5.87,5.87,0,0,1,506.66,356.11Zm2.13.18a4,4,0,0,0,.56,2.27,1.81,1.81,0,0,0,1.59.81,2,2,0,0,0,1.91-1.17v-4.06A2,2,0,0,0,511,353a1.8,1.8,0,0,0-1.6.82A4.36,4.36,0,0,0,508.79,356.29Z" transform="translate(-81.13 -231.6)"/><path class="cls-3" d="M516.84,356.11a5.55,5.55,0,0,1,1-3.54,3.33,3.33,0,0,1,2.76-1.32,3.15,3.15,0,0,1,2.56,1.13l.09-.95h1.93v9.22a3.83,3.83,0,0,1-1.17,3,4.42,4.42,0,0,1-3.14,1.08,4.9,4.9,0,0,1-2-.44,3.54,3.54,0,0,1-1.52-1.13l1-1.29A3.07,3.07,0,0,0,520.8,363a2.37,2.37,0,0,0,1.68-.57,2.22,2.22,0,0,0,.61-1.7v-.64a3.12,3.12,0,0,1-2.46,1,3.33,3.33,0,0,1-2.73-1.33A5.77,5.77,0,0,1,516.84,356.11Zm2.13.18a3.84,3.84,0,0,0,.59,2.26,1.86,1.86,0,0,0,1.62.82,2,2,0,0,0,1.91-1.11v-4.18a2,2,0,0,0-1.9-1.08,1.87,1.87,0,0,0-1.63.83A4.29,4.29,0,0,0,519,356.29Z" transform="translate(-81.13 -231.6)"/><path class="cls-3" d="M531.61,361.11a4.39,4.39,0,0,1-3.29-1.28,4.64,4.64,0,0,1-1.26-3.4v-.27a5.64,5.64,0,0,1,.55-2.54,4.17,4.17,0,0,1,1.54-1.75,4.12,4.12,0,0,1,2.21-.62,3.7,3.7,0,0,1,3,1.24,5.22,5.22,0,0,1,1.06,3.51v.86h-6.21a2.85,2.85,0,0,0,.79,1.86,2.35,2.35,0,0,0,1.73.69,2.89,2.89,0,0,0,2.39-1.19l1.15,1.1a3.75,3.75,0,0,1-1.52,1.32A4.84,4.84,0,0,1,531.61,361.11Zm-.26-8.15a1.83,1.83,0,0,0-1.42.62,3.26,3.26,0,0,0-.68,1.71h4.06v-.16a2.54,2.54,0,0,0-.57-1.62A1.79,1.79,0,0,0,531.35,353Z" transform="translate(-81.13 -231.6)"/><path class="cls-3" d="M544.12,360.94H541.9v-12.8h2.22Z" transform="translate(-81.13 -231.6)"/><path class="cls-3" d="M548.63,351.43l.06,1.09a3.4,3.4,0,0,1,2.77-1.27c2,0,3,1.13,3,3.4v6.29h-2.14v-6.17a2,2,0,0,0-.39-1.34,1.63,1.63,0,0,0-1.28-.43,2.05,2.05,0,0,0-1.92,1.17v6.77h-2.14v-9.51Z" transform="translate(-81.13 -231.6)"/><path class="cls-3" d="M559.33,349.11v2.32H561V353h-1.68v5.31a1.12,1.12,0,0,0,.22.78,1,1,0,0,0,.76.24,3.19,3.19,0,0,0,.75-.08v1.65a5.38,5.38,0,0,1-1.4.2c-1.64,0-2.47-.9-2.47-2.71V353h-1.56v-1.58h1.56v-2.32Z" transform="translate(-81.13 -231.6)"/><path class="cls-3" d="M566.83,361.11a4.38,4.38,0,0,1-3.29-1.28,4.6,4.6,0,0,1-1.27-3.4v-.27a5.78,5.78,0,0,1,.55-2.54,4.19,4.19,0,0,1,1.55-1.75,4.12,4.12,0,0,1,2.21-.62,3.7,3.7,0,0,1,3,1.24,5.22,5.22,0,0,1,1.06,3.51v.86h-6.21a2.8,2.8,0,0,0,.79,1.86,2.32,2.32,0,0,0,1.73.69,2.89,2.89,0,0,0,2.39-1.19l1.15,1.1a3.82,3.82,0,0,1-1.52,1.32A4.84,4.84,0,0,1,566.83,361.11Zm-.26-8.15a1.81,1.81,0,0,0-1.42.62,3.19,3.19,0,0,0-.69,1.71h4.07v-.16a2.54,2.54,0,0,0-.57-1.62A1.81,1.81,0,0,0,566.57,353Z" transform="translate(-81.13 -231.6)"/><path class="cls-3" d="M571.93,356.11a5.54,5.54,0,0,1,1-3.54,3.33,3.33,0,0,1,2.76-1.32,3.15,3.15,0,0,1,2.56,1.13l.1-.95h1.92v9.22a3.86,3.86,0,0,1-1.16,3,4.46,4.46,0,0,1-3.15,1.08,4.9,4.9,0,0,1-2-.44,3.54,3.54,0,0,1-1.52-1.13l1-1.29a3.07,3.07,0,0,0,2.43,1.17,2.37,2.37,0,0,0,1.68-.57,2.22,2.22,0,0,0,.61-1.7v-.64a3.12,3.12,0,0,1-2.46,1,3.33,3.33,0,0,1-2.73-1.33A5.77,5.77,0,0,1,571.93,356.11Zm2.12.18a3.84,3.84,0,0,0,.59,2.26,1.87,1.87,0,0,0,1.62.82,2,2,0,0,0,1.91-1.11v-4.18a2,2,0,0,0-1.89-1.08,1.89,1.89,0,0,0-1.64.83A4.29,4.29,0,0,0,574.05,356.29Z" transform="translate(-81.13 -231.6)"/><path class="cls-3" d="M587.48,353.38a4.94,4.94,0,0,0-.87-.07,2,2,0,0,0-2,1.12v6.51H582.5v-9.51h2l.05,1.06a2.4,2.4,0,0,1,2.14-1.24,2.05,2.05,0,0,1,.76.12Z" transform="translate(-81.13 -231.6)"/><path class="cls-3" d="M594.25,360.94a3.53,3.53,0,0,1-.25-.89,3.59,3.59,0,0,1-4.83.24,2.61,2.61,0,0,1-.91-2,2.7,2.7,0,0,1,1.13-2.33,5.5,5.5,0,0,1,3.23-.81h1.31v-.63a1.65,1.65,0,0,0-.41-1.18,1.62,1.62,0,0,0-1.26-.44,1.89,1.89,0,0,0-1.19.36,1.13,1.13,0,0,0-.47.93h-2.13a2.38,2.38,0,0,1,.51-1.46,3.4,3.4,0,0,1,1.41-1.07,5,5,0,0,1,2-.39,4,4,0,0,1,2.66.84,3,3,0,0,1,1,2.36v4.29a4.89,4.89,0,0,0,.36,2.05v.15Zm-2.35-1.54a2.48,2.48,0,0,0,1.19-.31,2,2,0,0,0,.84-.83v-1.79h-1.15a3.19,3.19,0,0,0-1.78.41,1.35,1.35,0,0,0-.6,1.17,1.25,1.25,0,0,0,.41,1A1.55,1.55,0,0,0,591.9,359.4Z" transform="translate(-81.13 -231.6)"/><path class="cls-3" d="M601,349.11v2.32h1.68V353H601v5.31a1.12,1.12,0,0,0,.22.78,1,1,0,0,0,.77.24,3.16,3.16,0,0,0,.74-.08v1.65a5.38,5.38,0,0,1-1.4.2c-1.64,0-2.46-.9-2.46-2.71V353h-1.57v-1.58h1.57v-2.32Z" transform="translate(-81.13 -231.6)"/><path class="cls-3" d="M604.3,349a1.13,1.13,0,0,1,.31-.82,1.15,1.15,0,0,1,.89-.33,1.2,1.2,0,0,1,.9.33,1.13,1.13,0,0,1,.31.82,1.09,1.09,0,0,1-.31.8,1.24,1.24,0,0,1-.9.32,1.18,1.18,0,0,1-.89-.32A1.09,1.09,0,0,1,604.3,349Zm2.26,12h-2.13v-9.51h2.13Z" transform="translate(-81.13 -231.6)"/><path class="cls-3" d="M608.49,356.09a5.62,5.62,0,0,1,.55-2.52,4.07,4.07,0,0,1,1.56-1.72,4.38,4.38,0,0,1,2.3-.6,4.12,4.12,0,0,1,3.12,1.24,4.86,4.86,0,0,1,1.3,3.29v.5a5.67,5.67,0,0,1-.54,2.51,4,4,0,0,1-1.55,1.71,4.34,4.34,0,0,1-2.32.61,4.1,4.1,0,0,1-3.22-1.34,5.1,5.1,0,0,1-1.21-3.57Zm2.13.19a3.88,3.88,0,0,0,.61,2.3,2,2,0,0,0,1.69.83,2,2,0,0,0,1.68-.85,4.23,4.23,0,0,0,.6-2.47,3.72,3.72,0,0,0-.62-2.28,2.08,2.08,0,0,0-3.34,0A4.19,4.19,0,0,0,610.62,356.28Z" transform="translate(-81.13 -231.6)"/><path class="cls-3" d="M621.12,351.43l.06,1.09a3.42,3.42,0,0,1,2.77-1.27q3,0,3,3.4v6.29h-2.13v-6.17a2,2,0,0,0-.4-1.34,1.62,1.62,0,0,0-1.27-.43,2.05,2.05,0,0,0-1.93,1.17v6.77H619.1v-9.51Z" transform="translate(-81.13 -231.6)"/><path class="cls-3" d="M636.06,356.19v4.75h-2.22v-12.8h4.89a4.94,4.94,0,0,1,3.41,1.12,3.75,3.75,0,0,1,1.26,2.95,3.61,3.61,0,0,1-1.24,2.93,5.16,5.16,0,0,1-3.46,1.05Zm0-1.79h2.67a2.63,2.63,0,0,0,1.81-.56,2,2,0,0,0,.63-1.61,2.21,2.21,0,0,0-.64-1.66,2.44,2.44,0,0,0-1.74-.64h-2.73Z" transform="translate(-81.13 -231.6)"/><path class="cls-3" d="M647.41,360.94h-2.14v-13.5h2.14Z" transform="translate(-81.13 -231.6)"/><path class="cls-3" d="M655.41,360.94a3.61,3.61,0,0,1-.24-.89,3.6,3.6,0,0,1-4.84.24,2.6,2.6,0,0,1-.9-2,2.68,2.68,0,0,1,1.13-2.33,5.48,5.48,0,0,1,3.23-.81h1.31v-.63a1.65,1.65,0,0,0-.42-1.18,1.6,1.6,0,0,0-1.25-.44,1.9,1.9,0,0,0-1.2.36,1.12,1.12,0,0,0-.46.93h-2.14a2.33,2.33,0,0,1,.52-1.46,3.28,3.28,0,0,1,1.41-1.07,4.91,4.91,0,0,1,2-.39,4,4,0,0,1,2.66.84,3,3,0,0,1,1,2.36v4.29a4.89,4.89,0,0,0,.36,2.05v.15Zm-2.34-1.54a2.51,2.51,0,0,0,1.19-.31,2.1,2.1,0,0,0,.84-.83v-1.79h-1.16a3.19,3.19,0,0,0-1.78.41,1.35,1.35,0,0,0-.6,1.17,1.25,1.25,0,0,0,.41,1A1.56,1.56,0,0,0,653.07,359.4Z" transform="translate(-81.13 -231.6)"/><path class="cls-3" d="M662.14,349.11v2.32h1.68V353h-1.68v5.31a1.17,1.17,0,0,0,.22.78,1,1,0,0,0,.77.24,3.25,3.25,0,0,0,.75-.08v1.65a5.51,5.51,0,0,1-1.41.2c-1.64,0-2.46-.9-2.46-2.71V353h-1.57v-1.58H660v-2.32Z" transform="translate(-81.13 -231.6)"/><path class="cls-3" d="M666.21,360.94V353h-1.45v-1.58h1.45v-.87a3.3,3.3,0,0,1,.87-2.45,3.4,3.4,0,0,1,2.47-.86,4.71,4.71,0,0,1,1.19.16l0,1.67a4,4,0,0,0-.82-.07,1.37,1.37,0,0,0-1.53,1.57v.85h1.93V353h-1.93v7.93Z" transform="translate(-81.13 -231.6)"/><path class="cls-3" d="M671.43,356.09a5.62,5.62,0,0,1,.56-2.52,4.12,4.12,0,0,1,1.55-1.72,4.42,4.42,0,0,1,2.31-.6,4.14,4.14,0,0,1,3.12,1.24,4.91,4.91,0,0,1,1.3,3.29v.5a5.67,5.67,0,0,1-.54,2.51,4,4,0,0,1-1.55,1.71,4.38,4.38,0,0,1-2.33.61,4.11,4.11,0,0,1-3.22-1.34,5.14,5.14,0,0,1-1.21-3.57Zm2.14.19a3.81,3.81,0,0,0,.61,2.3,2.11,2.11,0,0,0,3.37,0,4.23,4.23,0,0,0,.6-2.47,3.78,3.78,0,0,0-.62-2.28,2.08,2.08,0,0,0-3.34,0A4.19,4.19,0,0,0,673.57,356.28Z" transform="translate(-81.13 -231.6)"/><path class="cls-3" d="M687.06,353.38a4.94,4.94,0,0,0-.87-.07,2,2,0,0,0-2,1.12v6.51h-2.13v-9.51h2l0,1.06a2.4,2.4,0,0,1,2.14-1.24,2.05,2.05,0,0,1,.76.12Z" transform="translate(-81.13 -231.6)"/><path class="cls-3" d="M690.42,351.43l.06,1a3.42,3.42,0,0,1,2.74-1.17,2.64,2.64,0,0,1,2.61,1.46,3.39,3.39,0,0,1,2.92-1.46,3,3,0,0,1,2.34.87,3.8,3.8,0,0,1,.79,2.57v6.25h-2.14v-6.19a1.9,1.9,0,0,0-.39-1.33A1.73,1.73,0,0,0,698,353a1.78,1.78,0,0,0-1.19.39,2.09,2.09,0,0,0-.65,1v6.53h-2.13v-6.26a1.53,1.53,0,0,0-1.72-1.68,1.9,1.9,0,0,0-1.82,1v6.9h-2.13v-9.51Z" transform="translate(-81.13 -231.6)"/></svg>